<?xml version="1.0" encoding="UTF-8"?>
<svg xmlns="http://www.w3.org/2000/svg" width="1254" height="1254" viewBox="0 0 1254 1254" fill="none" shape-rendering="geometricPrecision">
  <title>Pastel lotus data-grid logo — smooth traced vector</title>
  <defs>
    <linearGradient id="lotusRose" x1="627.0" y1="199" x2="627.0" y2="945" gradientUnits="userSpaceOnUse">
      <stop offset="0" stop-color="#FFC1CA"/>
      <stop offset="0.30" stop-color="#F78CA4"/>
      <stop offset="0.62" stop-color="#E86682"/>
      <stop offset="1" stop-color="#CB4C66"/>
    </linearGradient>
  </defs>
  <path fill="url(#lotusRose)" fill-rule="evenodd" d="
    M 743.50,367.92 L 510.50,367.95 L 509.89,367.25 L 511.84,364.50 L 515.91,355.25 L 517.84,353.50 L 520.91,346.25 L 522.84,344.50 L 524.91,339.25 L 526.75,337.65 L 527.91,334.25 L 529.75,332.65 L 529.91,331.25 L 530.84,330.50 L 530.91,329.25 L 532.84,327.50 L 533.91,324.25 L 537.75,319.65 L 539.00,316.10 L 542.84,311.50 L 544.00,308.10 L 545.75,306.65 L 545.91,305.25 L 549.75,300.65 L 550.00,299.10 L 551.75,297.65 L 552.00,296.10 L 553.75,294.65 L 554.00,293.10 L 556.75,290.65 L 556.91,289.25 L 560.75,284.65 L 561.00,283.10 L 562.75,281.65 L 563.00,280.10 L 565.75,277.65 L 565.91,276.25 L 569.75,271.65 L 570.00,270.10 L 575.75,263.65 L 576.00,262.10 L 577.75,260.65 L 578.00,259.10 L 580.75,256.65 L 581.00,255.10 L 582.84,253.50 L 583.00,252.10 L 586.75,248.65 L 586.91,247.25 L 588.75,245.65 L 589.00,244.10 L 591.75,241.65 L 592.00,240.10 L 595.75,236.65 L 596.00,235.10 L 599.75,231.65 L 599.91,230.25 L 602.75,227.65 L 603.00,226.10 L 606.75,222.65 L 607.00,221.10 L 610.75,217.65 L 611.00,216.10 L 614.75,212.65 L 615.00,211.10 L 620.75,205.65 L 621.00,204.10 L 627.00,198.87 L 637.75,210.10 L 638.00,211.65 L 643.75,217.10 L 644.00,218.65 L 647.75,222.10 L 648.00,223.65 L 652.75,228.10 L 653.00,229.65 L 660.75,238.10 L 661.00,239.65 L 664.75,243.10 L 664.91,244.50 L 667.75,247.10 L 668.00,248.65 L 671.75,252.10 L 671.91,253.50 L 674.75,256.10 L 674.91,257.50 L 676.75,259.10 L 677.00,260.65 L 679.75,263.10 L 679.91,264.50 L 681.75,266.10 L 682.00,267.65 L 684.75,270.10 L 684.91,271.50 L 686.75,273.10 L 687.00,274.65 L 689.75,277.10 L 690.00,278.65 L 693.84,283.25 L 694.00,284.65 L 696.75,287.10 L 698.00,290.65 L 700.75,293.10 L 701.00,294.65 L 702.75,296.10 L 703.91,299.50 L 707.75,304.10 L 708.00,305.65 L 709.75,307.10 L 710.91,310.50 L 714.75,315.10 L 715.91,318.50 L 717.75,320.10 L 717.91,321.50 L 718.84,322.25 L 718.91,323.50 L 720.84,325.25 L 721.91,328.50 L 723.84,330.25 L 724.91,333.50 L 726.84,335.25 L 726.91,336.50 L 727.84,337.25 L 729.00,340.65 L 730.84,342.25 L 730.91,343.50 L 731.84,344.25 L 731.91,345.50 L 732.84,346.25 L 736.91,355.50 L 738.84,357.25 L 741.91,364.50 L 743.86,367.25 Z
    M 455.50,459.82 L 451.50,459.88 L 450.25,458.88 L 277.50,458.88 L 276.25,459.88 L 267.75,459.88 L 266.00,458.64 L 265.85,449.50 L 266.90,448.25 L 266.85,441.50 L 267.90,440.25 L 267.85,434.50 L 268.90,433.25 L 268.85,427.50 L 269.90,426.25 L 269.85,421.50 L 270.90,420.25 L 270.85,415.50 L 271.90,414.25 L 271.85,410.50 L 272.90,409.25 L 272.85,405.50 L 273.90,404.25 L 273.85,400.50 L 274.90,399.25 L 274.92,395.25 L 275.90,394.25 L 275.85,390.50 L 276.83,389.50 L 276.85,386.50 L 277.90,385.25 L 277.85,381.50 L 278.90,380.25 L 278.85,377.50 L 279.83,376.50 L 280.85,369.50 L 281.90,368.25 L 281.85,365.50 L 282.90,364.25 L 282.85,361.50 L 283.83,360.50 L 283.92,358.25 L 284.83,357.50 L 284.92,354.25 L 285.83,353.50 L 285.92,351.25 L 286.90,350.25 L 286.92,347.25 L 287.83,346.50 L 287.92,344.25 L 288.83,343.50 L 288.92,341.25 L 289.83,340.50 L 289.92,337.25 L 290.83,336.50 L 290.92,334.25 L 291.83,333.50 L 291.92,331.25 L 292.83,330.50 L 292.92,328.25 L 293.83,327.50 L 293.92,325.25 L 294.90,324.25 L 294.92,322.25 L 296.83,319.50 L 296.92,317.25 L 297.83,316.50 L 297.92,314.25 L 298.90,313.25 L 298.92,311.25 L 300.83,308.50 L 300.92,306.25 L 301.83,305.50 L 301.85,303.50 L 302.84,302.50 L 302.91,301.25 L 303.83,300.50 L 303.92,298.25 L 305.83,295.50 L 305.92,293.25 L 308.83,288.50 L 308.92,286.25 L 309.84,285.50 L 313.13,278.00 L 317.50,278.93 L 322.25,281.82 L 324.50,281.93 L 329.25,284.82 L 331.50,284.93 L 346.25,292.82 L 348.50,292.93 L 361.25,299.83 L 362.50,299.92 L 363.25,300.83 L 364.50,300.92 L 365.25,301.83 L 366.50,301.92 L 368.25,303.83 L 379.50,308.92 L 381.25,310.83 L 388.50,313.92 L 390.25,315.83 L 395.50,317.92 L 397.25,319.83 L 400.50,320.92 L 402.25,322.83 L 405.50,323.92 L 407.25,325.83 L 410.50,326.92 L 412.25,328.83 L 415.50,329.92 L 417.25,331.83 L 420.50,332.92 L 422.14,334.75 L 423.50,334.92 L 425.25,336.83 L 426.50,336.92 L 428.25,338.83 L 429.50,338.92 L 431.25,340.83 L 432.50,340.92 L 434.25,342.83 L 435.50,342.92 L 437.25,344.83 L 438.50,344.92 L 440.14,346.75 L 441.50,346.92 L 443.25,348.83 L 444.50,348.92 L 446.25,350.83 L 447.50,350.92 L 449.25,352.83 L 450.50,352.92 L 453.14,355.75 L 454.50,355.92 L 456.25,357.83 L 457.50,357.92 L 464.14,363.75 L 465.61,364.00 L 468.14,366.75 L 469.61,367.00 L 472.14,369.75 L 473.61,370.00 L 476.14,372.75 L 477.61,373.00 L 482.14,377.75 L 483.75,378.10 L 483.90,381.25 L 482.92,382.25 L 482.83,384.50 L 481.91,385.25 L 481.84,386.50 L 480.85,387.50 L 480.83,389.50 L 477.92,394.25 L 477.83,396.50 L 475.92,399.25 L 475.83,401.50 L 472.92,406.25 L 472.83,408.50 L 471.92,409.25 L 471.90,411.25 L 470.91,412.25 L 470.84,413.50 L 469.92,414.25 L 469.90,416.25 L 468.92,417.25 L 468.83,419.50 L 467.92,420.25 L 467.83,422.50 L 465.92,425.25 L 465.83,427.50 L 464.92,428.25 L 464.83,430.50 L 463.92,431.25 L 463.83,433.50 L 462.85,434.50 L 462.83,438.50 L 460.92,441.25 L 460.83,444.50 L 458.92,447.25 L 458.90,450.25 L 457.85,451.50 L 456.83,458.50 Z
    M 980.50,459.81 L 979.25,459.81 L 978.25,458.88 L 817.50,458.88 L 816.25,459.88 L 805.50,459.88 L 804.25,458.88 L 797.25,458.83 L 796.83,456.25 L 795.85,455.25 L 795.83,452.25 L 794.92,451.50 L 794.83,449.25 L 793.92,448.50 L 793.90,446.50 L 792.92,445.50 L 792.83,443.25 L 791.92,442.50 L 791.83,440.25 L 790.92,439.50 L 789.90,432.50 L 788.92,431.50 L 788.83,429.25 L 787.92,428.50 L 787.83,426.25 L 786.92,425.50 L 786.83,423.25 L 784.92,420.50 L 784.83,418.25 L 782.92,415.50 L 781.83,410.25 L 780.91,409.50 L 780.84,408.25 L 779.85,407.25 L 779.83,405.25 L 778.92,404.50 L 778.83,402.25 L 777.91,401.50 L 777.84,400.25 L 776.85,399.25 L 776.83,397.25 L 773.92,392.50 L 773.83,390.25 L 769.92,383.50 L 768.93,379.25 L 771.25,376.92 L 772.61,376.75 L 776.14,373.00 L 777.61,372.75 L 780.14,370.00 L 781.61,369.75 L 784.14,367.00 L 785.50,366.83 L 787.25,364.92 L 788.61,364.75 L 791.14,362.00 L 792.61,361.75 L 799.25,355.92 L 800.50,355.83 L 802.14,354.00 L 803.50,353.83 L 805.25,351.92 L 806.50,351.83 L 808.25,349.92 L 809.50,349.83 L 812.25,346.92 L 815.50,345.83 L 817.25,343.92 L 818.50,343.83 L 820.25,341.92 L 821.61,341.75 L 824.25,338.92 L 827.50,337.83 L 829.25,335.92 L 830.50,335.83 L 832.25,333.92 L 833.61,333.75 L 835.25,331.92 L 836.50,331.83 L 840.25,328.92 L 843.50,327.83 L 845.25,325.92 L 846.50,325.83 L 848.25,323.92 L 851.50,322.83 L 853.25,320.92 L 856.50,319.83 L 858.25,317.92 L 859.50,317.83 L 860.25,316.92 L 863.50,315.83 L 865.25,313.92 L 872.50,310.83 L 874.25,308.92 L 881.50,305.83 L 883.25,303.92 L 884.50,303.83 L 885.25,302.92 L 886.50,302.83 L 887.25,301.92 L 888.50,301.83 L 889.25,300.92 L 890.50,300.83 L 891.25,299.92 L 892.50,299.83 L 893.25,298.92 L 894.50,298.83 L 895.25,297.92 L 896.50,297.83 L 897.25,296.92 L 898.50,296.83 L 899.25,295.92 L 900.50,295.83 L 901.25,294.92 L 902.50,294.83 L 903.25,293.92 L 904.50,293.83 L 917.25,286.93 L 919.50,286.82 L 924.25,283.93 L 926.50,283.82 L 933.25,279.93 L 935.50,279.82 L 936.25,278.93 L 938.50,278.80 L 939.50,277.89 L 941.83,280.25 L 941.92,282.50 L 942.84,283.25 L 942.91,284.50 L 944.83,287.25 L 944.92,289.50 L 947.83,294.25 L 947.92,296.50 L 948.84,297.25 L 948.91,298.50 L 949.90,299.50 L 949.92,301.50 L 951.83,304.25 L 952.92,309.50 L 954.83,312.25 L 954.92,314.50 L 955.83,315.25 L 955.92,317.50 L 956.83,318.25 L 956.85,320.25 L 957.83,321.25 L 957.92,323.50 L 958.83,324.25 L 958.92,326.50 L 960.83,329.25 L 960.92,331.50 L 961.83,332.25 L 961.92,334.50 L 962.90,335.50 L 962.92,338.50 L 963.83,339.25 L 963.92,341.50 L 964.83,342.25 L 964.92,344.50 L 965.83,345.25 L 965.92,347.50 L 966.90,348.50 L 966.92,351.50 L 967.83,352.25 L 967.92,354.50 L 968.83,355.25 L 969.85,362.25 L 970.90,363.50 L 970.85,366.25 L 971.83,367.25 L 971.92,369.50 L 972.90,370.50 L 972.92,373.50 L 973.90,374.50 L 973.85,378.25 L 974.90,379.50 L 975.85,386.25 L 976.90,387.50 L 976.85,391.25 L 977.90,392.50 L 977.85,396.25 L 978.90,397.50 L 978.85,401.25 L 979.90,402.50 L 979.92,406.50 L 980.90,407.50 L 980.85,411.25 L 981.90,412.50 L 981.85,417.25 L 982.90,418.50 L 982.85,423.25 L 983.90,424.50 L 983.85,430.25 L 984.83,431.25 L 984.85,436.25 L 985.90,437.50 L 985.85,444.25 L 986.90,445.50 L 986.85,453.25 L 987.92,454.75 L 987.64,458.75 L 981.50,458.88 Z
    M 477.50,459.82 L 475.25,459.83 L 474.85,459.25 L 474.85,455.50 L 475.90,454.25 L 475.92,451.25 L 476.83,450.50 L 476.92,448.25 L 477.83,447.50 L 478.92,442.25 L 479.83,441.50 L 479.92,439.25 L 480.83,438.50 L 480.92,436.25 L 481.83,435.50 L 481.85,433.50 L 482.83,432.50 L 482.92,430.25 L 483.83,429.50 L 483.92,427.25 L 484.83,426.50 L 484.92,424.25 L 486.83,421.50 L 486.85,419.50 L 487.83,418.50 L 487.92,416.25 L 488.83,415.50 L 488.92,413.25 L 491.83,408.50 L 491.92,406.25 L 493.83,403.50 L 493.85,401.50 L 494.84,400.50 L 494.91,399.25 L 495.83,398.50 L 495.92,396.25 L 496.84,395.50 L 496.91,394.25 L 497.84,393.50 L 497.91,392.25 L 498.84,391.50 L 501.25,385.91 L 617.83,386.25 L 617.50,458.83 L 478.50,458.88 Z
    M 772.50,459.81 L 771.25,459.81 L 770.25,458.88 L 639.50,458.88 L 638.50,459.82 L 636.25,459.82 L 634.83,458.00 L 634.85,446.50 L 635.92,445.00 L 635.92,386.25 L 752.50,385.91 L 753.91,389.50 L 754.83,390.25 L 754.92,392.50 L 756.83,395.25 L 756.92,397.50 L 757.84,398.25 L 757.91,399.50 L 760.83,404.25 L 760.92,406.50 L 762.83,409.25 L 762.92,411.50 L 763.83,412.25 L 763.85,414.25 L 764.84,415.25 L 764.91,416.50 L 765.83,417.25 L 766.92,422.50 L 768.83,425.25 L 768.92,427.50 L 769.83,428.25 L 769.92,430.50 L 770.83,431.25 L 770.92,433.50 L 771.83,434.25 L 771.92,436.50 L 772.90,437.50 L 772.92,440.50 L 773.83,441.25 L 773.92,443.50 L 774.83,444.25 L 774.92,446.50 L 775.83,447.25 L 775.92,449.50 L 776.83,450.25 L 776.92,452.50 L 777.90,453.50 L 777.92,455.50 L 778.83,456.25 L 778.50,458.83 L 773.50,458.88 Z
    M 335.50,548.83 L 263.00,548.64 L 262.92,527.75 L 261.83,526.00 L 261.83,505.75 L 262.90,504.25 L 262.83,482.75 L 263.90,481.25 L 264.11,477.00 L 335.75,477.11 Z
    M 442.50,548.83 L 353.11,548.75 L 353.00,477.11 L 451.64,477.00 L 451.90,479.25 L 450.85,480.50 L 450.90,485.25 L 449.92,486.25 L 448.90,493.25 L 447.85,494.50 L 447.90,499.25 L 446.85,500.50 L 446.90,506.25 L 445.85,507.50 L 445.90,514.25 L 444.83,515.75 L 444.90,523.25 L 443.85,524.50 L 443.90,534.25 L 442.85,535.50 Z
    M 617.50,548.83 L 460.25,548.83 L 459.83,543.75 L 460.90,542.25 L 460.83,530.75 L 461.90,529.25 L 461.85,520.50 L 462.90,519.25 L 462.85,512.50 L 463.90,511.25 L 463.85,505.50 L 464.90,504.25 L 464.85,499.50 L 465.90,498.25 L 465.85,493.50 L 466.83,492.50 L 466.85,489.50 L 467.90,488.25 L 467.85,483.50 L 468.90,482.25 L 468.92,479.25 L 470.50,476.88 L 617.50,476.92 Z
    M 792.50,548.83 L 635.25,548.83 L 634.85,544.50 L 635.92,543.00 L 635.92,477.25 L 783.50,476.92 L 783.92,480.50 L 784.90,481.50 L 784.85,485.25 L 785.90,486.50 L 785.85,490.25 L 786.90,491.50 L 786.85,496.25 L 787.90,497.50 L 787.85,502.25 L 788.90,503.50 L 788.85,508.25 L 789.90,509.50 L 789.85,516.25 L 790.92,517.75 L 790.85,525.25 L 791.90,526.50 L 791.85,537.25 L 792.92,538.75 Z
    M 899.50,548.83 L 810.11,548.75 L 809.92,530.75 L 808.85,529.25 L 808.90,520.50 L 807.85,519.25 L 807.90,512.50 L 806.85,511.25 L 806.90,504.50 L 805.92,503.50 L 805.90,498.50 L 804.85,497.25 L 804.90,492.50 L 803.85,491.25 L 803.90,487.50 L 802.85,486.25 L 802.83,483.25 L 801.85,482.25 L 802.00,477.11 L 899.64,477.00 Z
    M 989.50,548.83 L 917.11,548.75 L 917.00,477.11 L 989.64,477.00 L 989.85,491.25 L 990.92,492.75 L 990.92,538.00 L 989.85,539.50 Z
    M 260.50,639.82 L 258.25,639.82 L 257.25,638.88 L 49.25,638.83 L 48.83,636.25 L 47.85,635.25 L 47.83,633.25 L 46.92,632.50 L 46.83,630.25 L 45.92,629.50 L 45.83,627.25 L 44.92,626.50 L 44.83,624.25 L 43.92,623.50 L 43.83,621.25 L 42.92,620.50 L 42.83,618.25 L 41.92,617.50 L 41.83,615.25 L 40.92,614.50 L 40.83,612.25 L 39.92,611.50 L 39.83,608.25 L 38.92,607.50 L 38.83,605.25 L 37.85,604.25 L 37.83,601.25 L 36.92,600.50 L 36.83,598.25 L 35.92,597.50 L 34.90,590.50 L 33.92,589.50 L 33.83,587.25 L 32.92,586.50 L 31.90,579.50 L 30.85,578.25 L 30.90,575.50 L 29.85,574.25 L 29.90,571.50 L 28.85,570.25 L 28.92,565.25 L 33.50,564.82 L 34.50,563.88 L 38.50,563.82 L 39.50,562.88 L 43.50,562.82 L 44.50,561.88 L 49.25,561.88 L 50.50,560.88 L 63.25,559.88 L 64.50,558.88 L 72.25,558.88 L 73.50,557.88 L 80.50,557.82 L 81.50,556.88 L 93.25,556.88 L 94.50,555.88 L 110.25,555.88 L 111.50,554.88 L 172.25,554.88 L 173.50,555.88 L 188.25,555.88 L 189.50,556.88 L 201.25,556.88 L 202.50,557.88 L 209.25,557.88 L 210.50,558.88 L 218.25,558.88 L 219.50,559.88 L 226.25,559.88 L 227.50,560.88 L 232.25,560.88 L 233.50,561.88 L 238.25,561.88 L 239.50,562.88 L 243.50,562.93 L 244.25,563.83 L 245.61,564.00 L 247.90,566.50 L 247.85,575.25 L 248.90,576.50 L 248.85,581.25 L 249.90,582.50 L 249.85,587.25 L 250.83,588.25 L 250.85,593.25 L 251.90,594.50 L 251.85,599.25 L 252.90,600.50 L 252.92,603.50 L 253.90,604.50 L 253.85,608.25 L 254.83,609.25 L 255.85,616.25 L 256.90,617.50 L 256.85,621.25 L 257.90,622.50 L 257.92,625.50 L 258.83,626.25 L 259.92,631.50 L 261.83,634.25 L 261.83,637.25 L 262.86,638.25 Z
    M 994.50,639.82 L 992.15,639.75 L 990.92,638.50 L 990.85,636.50 L 992.83,633.50 L 992.92,631.25 L 993.83,630.50 L 993.92,628.25 L 994.83,627.50 L 994.85,624.50 L 995.90,623.25 L 995.85,619.50 L 996.83,618.50 L 996.85,615.50 L 997.90,614.25 L 997.85,610.50 L 998.83,609.50 L 998.85,606.50 L 999.90,605.25 L 999.85,601.50 L 1000.83,600.50 L 1000.85,596.50 L 1001.90,595.25 L 1001.85,591.50 L 1002.90,590.25 L 1002.85,584.50 L 1003.90,583.25 L 1003.85,576.50 L 1004.90,575.25 L 1004.85,570.50 L 1005.90,569.25 L 1005.91,565.25 L 1010.25,562.93 L 1013.50,562.82 L 1014.50,561.88 L 1019.25,561.88 L 1020.50,560.88 L 1025.25,560.88 L 1026.50,559.88 L 1033.25,559.88 L 1034.50,558.88 L 1041.25,558.88 L 1042.50,557.88 L 1050.25,557.88 L 1051.50,556.88 L 1062.25,556.88 L 1063.50,555.88 L 1078.25,555.88 L 1079.50,554.88 L 1142.25,554.88 L 1143.50,555.88 L 1159.25,555.88 L 1160.50,556.88 L 1171.25,556.88 L 1172.50,557.88 L 1180.25,557.88 L 1181.50,558.88 L 1189.25,558.88 L 1190.50,559.88 L 1195.50,559.93 L 1196.50,560.88 L 1202.25,560.88 L 1203.50,561.88 L 1208.25,561.88 L 1209.50,562.88 L 1214.50,562.93 L 1215.25,563.82 L 1218.50,563.93 L 1219.25,564.82 L 1223.50,564.93 L 1224.91,566.50 L 1223.85,568.50 L 1223.90,572.25 L 1222.85,573.50 L 1222.83,576.50 L 1221.85,577.50 L 1221.83,580.50 L 1220.92,581.25 L 1220.83,583.50 L 1219.92,584.25 L 1218.90,591.25 L 1217.85,592.50 L 1217.83,595.50 L 1216.92,596.25 L 1216.83,598.50 L 1215.85,599.50 L 1215.83,602.50 L 1214.92,603.25 L 1214.83,605.50 L 1213.92,606.25 L 1213.83,608.50 L 1212.92,609.25 L 1212.83,612.50 L 1211.92,613.25 L 1211.83,615.50 L 1210.92,616.25 L 1210.83,618.50 L 1209.92,619.25 L 1209.83,622.50 L 1208.92,623.25 L 1208.83,625.50 L 1207.92,626.25 L 1207.83,628.50 L 1206.92,629.25 L 1206.83,631.50 L 1205.92,632.25 L 1205.83,634.50 L 1204.85,635.50 L 1204.83,637.50 L 1203.50,638.82 L 995.50,638.88 Z
    M 972.50,638.83 L 917.00,638.64 L 916.83,568.75 L 918.15,567.00 L 983.25,566.88 L 984.25,565.88 L 985.50,566.86 L 986.50,565.88 L 987.75,567.11 L 987.90,572.25 L 986.85,573.50 L 986.90,578.25 L 985.85,579.50 L 985.90,585.25 L 984.85,586.50 L 984.90,591.25 L 983.85,592.50 L 983.90,596.25 L 982.85,597.50 L 982.90,601.25 L 981.85,602.50 L 981.90,606.25 L 980.85,607.50 L 980.90,610.25 L 979.85,611.50 L 979.90,614.25 L 978.85,615.50 L 978.90,618.25 L 977.85,619.50 L 976.83,626.50 L 975.92,627.25 L 975.83,629.50 L 974.92,630.25 L 974.83,632.50 L 973.92,633.25 L 973.90,635.25 L 972.92,636.25 Z
    M 899.50,638.83 L 804.11,638.75 L 803.85,630.50 L 804.83,629.50 L 804.85,626.50 L 805.90,625.25 L 805.85,621.50 L 806.90,620.25 L 806.85,613.50 L 807.92,612.00 L 807.85,604.50 L 808.90,603.25 L 808.83,591.75 L 809.90,590.25 L 809.83,578.75 L 810.90,577.25 L 811.00,567.11 L 897.25,566.88 L 898.75,566.03 L 899.92,567.75 Z
    M 282.50,639.86 L 279.91,638.50 L 279.83,635.25 L 278.92,634.50 L 278.83,632.25 L 277.92,631.50 L 277.83,628.25 L 276.92,627.50 L 276.83,625.25 L 275.92,624.50 L 275.83,621.25 L 274.92,620.50 L 274.83,618.25 L 273.85,617.25 L 273.83,614.25 L 272.85,613.25 L 272.90,609.50 L 271.92,608.50 L 271.90,605.50 L 270.85,604.25 L 270.90,600.50 L 269.85,599.25 L 269.90,595.50 L 268.92,594.50 L 268.90,590.50 L 267.85,589.25 L 267.90,584.50 L 266.85,583.25 L 266.90,578.50 L 265.85,577.25 L 265.90,570.50 L 264.92,569.50 L 265.00,567.11 L 335.64,567.00 L 335.75,638.64 L 283.50,638.88 Z
    M 354.50,639.86 L 352.83,638.00 L 353.11,567.00 L 442.75,567.11 L 442.83,586.00 L 443.90,587.50 L 443.85,596.25 L 444.90,597.50 L 444.85,607.25 L 445.90,608.50 L 445.83,616.00 L 446.90,617.50 L 446.85,623.25 L 447.83,624.25 L 447.85,628.25 L 448.90,629.50 L 448.85,633.25 L 449.90,634.50 L 449.64,638.75 L 355.50,638.88 Z
    M 617.50,638.83 L 468.25,638.84 L 466.85,636.25 L 466.90,631.50 L 465.85,630.25 L 465.90,626.50 L 464.85,625.25 L 464.90,620.50 L 463.85,619.25 L 463.90,613.50 L 462.85,612.25 L 462.90,605.50 L 461.85,604.25 L 461.90,595.50 L 460.83,594.00 L 460.90,579.50 L 459.83,578.00 L 459.92,567.25 L 617.50,566.92 Z
    M 784.50,638.82 L 635.25,638.83 L 634.83,628.75 L 635.92,627.00 L 635.92,610.75 L 634.85,609.25 L 634.83,605.75 L 635.95,604.00 L 634.88,602.50 L 635.93,601.00 L 635.92,586.75 L 634.85,585.25 L 634.83,577.75 L 635.90,576.25 L 635.92,567.25 L 792.50,566.92 L 792.92,584.00 L 791.85,585.50 L 791.92,597.00 L 790.85,598.50 L 790.90,607.25 L 789.85,608.50 L 789.90,614.25 L 788.85,615.50 L 788.90,621.25 L 787.85,622.50 L 787.90,627.25 L 786.85,628.50 L 786.90,632.25 L 785.85,633.50 L 785.90,637.25 Z
    M 302.50,729.81 L 163.25,729.82 L 161.83,728.00 L 161.85,721.50 L 162.92,720.00 L 162.92,657.25 L 268.50,656.93 L 269.83,658.25 L 269.92,660.50 L 270.90,661.50 L 270.92,664.50 L 271.84,665.25 L 271.91,666.50 L 272.90,667.50 L 272.92,669.50 L 275.83,674.25 L 275.92,676.50 L 277.83,679.25 L 277.92,681.50 L 279.83,684.25 L 279.92,686.50 L 284.84,695.25 L 284.91,696.50 L 285.84,697.25 L 285.91,698.50 L 286.84,699.25 L 286.91,700.50 L 287.84,701.25 L 287.91,702.50 L 288.84,703.25 L 288.91,704.50 L 289.84,705.25 L 289.91,706.50 L 290.84,707.25 L 290.91,708.50 L 291.84,709.25 L 291.91,710.50 L 292.84,711.25 L 292.91,712.50 L 293.84,713.25 L 293.91,714.50 L 294.84,715.25 L 294.91,716.50 L 296.75,718.10 L 298.00,721.65 L 301.84,726.25 L 301.91,727.50 L 302.91,728.50 Z
    M 477.50,729.82 L 363.50,729.88 L 362.25,728.88 L 357.50,728.88 L 356.50,729.82 L 354.25,729.82 L 352.83,728.00 L 352.92,657.25 L 453.50,656.93 L 454.83,658.25 L 454.85,661.25 L 455.90,662.50 L 455.92,666.50 L 456.83,667.25 L 456.92,669.50 L 457.83,670.25 L 457.92,672.50 L 458.90,673.50 L 458.92,676.50 L 459.83,677.25 L 459.92,679.50 L 460.83,680.25 L 460.92,682.50 L 461.83,683.25 L 461.92,685.50 L 462.83,686.25 L 462.92,688.50 L 463.83,689.25 L 463.85,692.25 L 464.83,693.25 L 464.92,695.50 L 465.83,696.25 L 465.92,698.50 L 467.83,701.25 L 467.92,703.50 L 468.83,704.25 L 468.85,706.25 L 469.84,707.25 L 469.91,708.50 L 470.83,709.25 L 470.92,711.50 L 472.83,714.25 L 472.92,716.50 L 473.84,717.25 L 473.91,718.50 L 474.84,719.25 L 474.91,720.50 L 478.91,727.50 Z
    M 745.50,729.82 L 636.25,729.82 L 634.83,728.00 L 634.83,667.75 L 635.94,666.00 L 634.85,664.25 L 635.00,658.11 L 636.50,656.87 L 780.64,657.00 L 780.90,660.25 L 779.92,661.25 L 779.83,663.50 L 778.92,664.25 L 777.83,671.50 L 776.92,672.25 L 776.83,674.50 L 775.85,675.50 L 775.83,678.50 L 774.92,679.25 L 774.83,681.50 L 773.92,682.25 L 773.90,684.25 L 772.92,685.25 L 772.83,687.50 L 771.92,688.25 L 771.83,690.50 L 769.92,693.25 L 769.90,695.25 L 768.92,696.25 L 768.83,698.50 L 767.92,699.25 L 767.83,701.50 L 765.92,704.25 L 765.83,706.50 L 763.92,709.25 L 763.83,711.50 L 761.92,714.25 L 761.83,716.50 L 759.92,719.25 L 759.83,721.50 L 756.91,726.25 L 756.84,727.50 L 755.50,728.82 L 746.50,728.88 Z
    M 898.50,729.87 L 897.25,728.88 L 896.25,729.88 L 776.50,729.88 L 774.89,728.25 L 775.82,727.50 L 775.92,725.25 L 780.83,716.50 L 780.92,714.25 L 781.83,713.50 L 781.92,711.25 L 782.90,710.25 L 782.92,708.25 L 784.83,705.50 L 784.92,703.25 L 785.83,702.50 L 785.92,700.25 L 786.90,699.25 L 786.92,697.25 L 787.83,696.50 L 787.92,694.25 L 788.83,693.50 L 788.92,691.25 L 789.83,690.50 L 789.92,688.25 L 790.83,687.50 L 790.92,685.25 L 791.83,684.50 L 791.92,682.25 L 792.83,681.50 L 792.92,679.25 L 793.83,678.50 L 794.85,671.50 L 795.83,670.50 L 795.92,668.25 L 796.83,667.50 L 796.92,665.25 L 797.83,664.50 L 797.85,661.50 L 798.83,660.50 L 799.25,656.92 L 899.25,656.87 L 900.86,658.50 L 899.82,659.75 L 899.92,728.00 Z
    M 1084.50,729.82 L 951.50,729.88 L 950.84,727.75 L 952.84,725.50 L 954.00,722.10 L 955.84,720.50 L 958.00,715.10 L 959.84,713.50 L 959.91,712.25 L 960.84,711.50 L 960.91,710.25 L 961.84,709.50 L 961.91,708.25 L 962.84,707.50 L 962.91,706.25 L 963.84,705.50 L 963.91,704.25 L 964.84,703.50 L 964.91,702.25 L 965.84,701.50 L 965.91,700.25 L 966.84,699.50 L 966.91,698.25 L 971.83,689.50 L 971.92,687.25 L 974.83,682.50 L 974.92,680.25 L 977.83,675.50 L 977.85,673.50 L 978.84,672.50 L 978.91,671.25 L 979.83,670.50 L 980.92,665.25 L 983.83,660.50 L 983.92,658.25 L 985.25,656.93 L 1089.25,656.87 L 1090.92,658.75 L 1090.92,675.00 L 1089.81,676.75 L 1090.92,678.75 L 1090.93,725.00 L 1089.88,726.25 L 1090.87,727.50 L 1089.50,728.82 L 1085.50,728.88 Z
    M 143.50,729.82 L 90.15,729.75 L 87.91,727.50 L 83.84,718.25 L 82.91,717.50 L 82.84,716.25 L 80.91,714.50 L 80.84,713.25 L 75.92,704.50 L 75.83,702.25 L 74.91,701.50 L 74.84,700.25 L 73.91,699.50 L 73.84,698.25 L 68.92,689.50 L 68.83,687.25 L 64.92,680.50 L 64.83,678.25 L 62.91,675.50 L 62.84,674.25 L 61.92,673.50 L 61.83,671.25 L 59.92,668.50 L 59.83,666.25 L 57.92,663.50 L 57.83,661.25 L 55.93,658.50 L 56.00,657.14 L 145.64,657.00 L 145.92,728.00 Z
    M 334.50,729.82 L 324.50,729.88 L 322.00,727.65 L 320.84,724.25 L 319.00,722.65 L 318.84,721.25 L 317.91,720.50 L 317.84,719.25 L 315.91,717.50 L 314.84,714.25 L 312.91,712.50 L 311.84,709.25 L 309.91,707.50 L 309.84,706.25 L 308.91,705.50 L 308.84,704.25 L 307.91,703.50 L 307.84,702.25 L 306.91,701.50 L 306.84,700.25 L 305.91,699.50 L 305.84,698.25 L 304.91,697.50 L 304.84,696.25 L 303.91,695.50 L 303.84,694.25 L 302.91,693.50 L 302.84,692.25 L 297.92,683.50 L 297.83,681.25 L 293.92,674.50 L 293.83,672.25 L 290.91,667.50 L 290.84,666.25 L 289.92,665.50 L 289.83,663.25 L 288.92,662.50 L 288.83,660.25 L 287.85,659.25 L 288.11,657.00 L 335.75,657.11 L 335.92,728.00 Z
    M 616.50,729.82 L 614.25,729.82 L 613.25,728.88 L 611.25,728.93 L 610.25,729.88 L 559.50,729.88 L 558.25,728.88 L 553.50,728.88 L 552.25,729.88 L 549.25,729.82 L 548.25,728.88 L 541.50,728.88 L 540.25,729.88 L 516.50,729.88 L 515.50,728.89 L 513.50,729.88 L 512.25,728.88 L 502.50,728.88 L 501.50,729.82 L 499.25,729.82 L 497.00,727.65 L 496.84,726.25 L 495.92,725.50 L 495.83,723.25 L 491.92,716.50 L 491.83,714.25 L 488.92,709.50 L 487.83,704.25 L 486.91,703.50 L 486.84,702.25 L 485.85,701.25 L 485.83,699.25 L 483.92,696.50 L 482.83,691.25 L 480.92,688.50 L 480.83,686.25 L 479.92,685.50 L 479.83,683.25 L 478.92,682.50 L 477.83,677.25 L 476.92,676.50 L 476.83,674.25 L 475.92,673.50 L 475.90,670.50 L 474.92,669.50 L 474.90,666.50 L 473.92,665.50 L 473.90,662.50 L 472.92,661.50 L 471.93,657.25 L 617.50,656.92 L 617.92,728.00 Z
    M 928.50,729.81 L 927.25,729.79 L 926.25,728.89 L 925.25,729.88 L 918.50,729.88 L 916.85,728.25 L 916.92,657.25 L 965.50,656.94 L 965.91,658.25 L 964.92,659.25 L 964.90,661.25 L 963.91,662.25 L 963.84,663.50 L 962.92,664.25 L 962.83,666.50 L 958.92,673.25 L 958.83,675.50 L 955.92,680.25 L 955.83,682.50 L 950.91,691.25 L 950.84,692.50 L 949.91,693.25 L 949.84,694.50 L 948.91,695.25 L 948.84,696.50 L 947.91,697.25 L 947.84,698.50 L 946.91,699.25 L 946.84,700.50 L 945.91,701.25 L 945.84,702.50 L 944.91,703.25 L 944.84,704.50 L 942.91,706.25 L 940.84,711.50 L 938.91,713.25 L 938.84,714.50 L 937.91,715.25 L 936.75,718.65 L 934.91,720.25 L 933.75,723.65 Z
    M 1162.50,729.82 L 1108.50,729.88 L 1107.00,728.64 L 1106.85,724.50 L 1107.92,723.00 L 1108.11,657.00 L 1196.75,657.14 L 1195.83,661.50 L 1194.85,662.50 L 1194.83,664.50 L 1191.92,669.25 L 1191.83,671.50 L 1190.91,672.25 L 1190.84,673.50 L 1189.85,674.50 L 1189.83,676.50 L 1186.92,681.25 L 1186.83,683.50 L 1182.92,690.25 L 1182.83,692.50 L 1181.91,693.25 L 1181.84,694.50 L 1180.91,695.25 L 1180.84,696.50 L 1175.92,705.25 L 1175.83,707.50 L 1174.91,708.25 L 1173.75,711.65 L 1171.91,713.25 L 1171.84,714.50 L 1170.91,715.25 L 1170.84,716.50 L 1169.91,717.25 L 1169.84,718.50 L 1168.91,719.25 L 1164.75,728.67 L 1163.25,728.92 Z
    M 334.50,819.82 L 163.25,819.82 L 161.83,818.00 L 161.85,814.50 L 162.92,813.00 L 162.92,792.75 L 161.83,791.00 L 161.85,787.50 L 162.94,786.00 L 161.83,784.00 L 161.92,781.25 L 162.92,780.00 L 162.92,755.75 L 161.85,754.25 L 161.92,748.25 L 163.50,746.87 L 314.50,746.93 L 315.84,748.25 L 316.00,749.65 L 318.75,752.10 L 318.91,753.50 L 320.75,755.10 L 321.00,756.65 L 323.75,759.10 L 324.00,760.65 L 327.75,764.10 L 328.00,765.65 L 335.83,774.25 L 335.92,818.00 Z
    M 664.50,900.82 L 659.25,900.81 L 658.84,899.50 L 667.75,890.65 L 668.00,889.10 L 678.75,878.65 L 679.00,877.10 L 685.75,870.65 L 686.00,869.10 L 690.75,864.65 L 691.00,863.10 L 695.75,858.65 L 696.00,857.10 L 703.75,848.65 L 704.00,847.10 L 706.75,844.65 L 706.91,843.25 L 709.75,840.65 L 710.00,839.10 L 712.75,836.65 L 712.91,835.25 L 714.75,833.65 L 715.00,832.10 L 720.75,825.65 L 721.00,824.10 L 722.75,822.65 L 723.00,821.10 L 726.75,816.65 L 727.00,815.10 L 728.75,813.65 L 729.00,812.10 L 730.75,810.65 L 731.00,809.10 L 734.84,804.50 L 735.00,803.10 L 736.75,801.65 L 737.91,798.25 L 741.75,793.65 L 743.00,790.10 L 744.84,788.50 L 746.91,783.25 L 748.75,781.65 L 749.91,778.25 L 751.84,776.50 L 755.91,767.25 L 757.84,765.50 L 757.91,764.25 L 760.83,759.50 L 760.85,757.50 L 761.84,756.50 L 761.91,755.25 L 763.75,753.65 L 765.91,748.25 L 767.25,746.93 L 899.25,746.87 L 900.75,748.11 L 900.90,751.25 L 899.83,752.75 L 899.90,768.25 L 895.00,773.10 L 894.75,774.65 L 880.61,788.75 L 879.14,789.00 L 868.61,799.75 L 867.14,800.00 L 862.61,804.75 L 861.14,805.00 L 857.61,808.75 L 856.14,809.00 L 853.61,811.75 L 852.14,812.00 L 845.50,817.83 L 844.25,817.92 L 842.50,819.83 L 841.25,819.92 L 838.50,822.83 L 837.25,822.92 L 835.50,824.83 L 834.25,824.92 L 832.50,826.83 L 831.25,826.92 L 829.50,828.83 L 828.25,828.92 L 826.50,830.83 L 825.25,830.92 L 823.50,832.83 L 822.14,833.00 L 820.50,834.83 L 817.25,835.92 L 815.50,837.83 L 812.25,838.92 L 810.50,840.83 L 807.25,841.92 L 805.50,843.83 L 800.25,845.92 L 798.50,847.83 L 793.25,849.92 L 791.50,851.83 L 790.25,851.92 L 789.50,852.83 L 788.25,852.92 L 787.50,853.83 L 786.25,853.92 L 785.50,854.83 L 784.25,854.92 L 783.50,855.83 L 782.25,855.92 L 781.50,856.83 L 780.25,856.92 L 779.50,857.83 L 778.25,857.92 L 777.50,858.83 L 776.25,858.92 L 775.50,859.83 L 774.25,859.92 L 773.50,860.83 L 772.25,860.92 L 759.50,867.82 L 757.25,867.93 L 756.50,868.83 L 755.25,868.92 L 750.50,871.82 L 748.25,871.93 L 743.50,874.82 L 738.25,875.93 L 735.50,877.82 L 733.25,877.93 L 730.50,879.82 L 728.25,879.93 L 725.50,881.82 L 720.25,882.93 L 717.50,884.82 L 715.25,884.93 L 714.50,885.82 L 712.25,885.93 L 711.50,886.82 L 709.25,886.93 L 708.50,887.82 L 706.25,887.93 L 705.50,888.82 L 703.25,888.93 L 702.50,889.82 L 700.25,889.93 L 699.50,890.82 L 697.25,890.93 L 696.50,891.82 L 694.25,891.93 L 693.50,892.82 L 690.25,892.93 L 689.50,893.82 L 687.25,893.93 L 686.50,894.82 L 684.25,894.93 L 683.50,895.82 L 680.25,895.93 L 679.50,896.82 L 677.25,896.93 L 676.50,897.82 L 673.25,897.93 L 672.50,898.82 L 670.25,898.93 L 669.50,899.82 L 665.50,899.88 Z
    M 1089.50,819.82 L 917.25,819.83 L 916.85,775.50 L 917.84,774.50 L 918.00,773.10 L 921.75,769.65 L 922.00,768.10 L 925.75,764.65 L 926.00,763.10 L 929.75,759.65 L 930.00,758.10 L 935.75,751.65 L 936.00,750.10 L 939.50,746.87 L 1090.50,746.92 L 1090.92,799.00 L 1089.85,800.50 L 1089.83,809.00 L 1090.90,810.50 L 1090.92,818.00 Z
    M 145.50,808.83 L 143.00,808.65 L 142.75,807.10 L 139.00,803.65 L 138.75,802.10 L 135.00,798.65 L 134.75,797.10 L 131.00,793.65 L 130.75,792.10 L 128.00,789.65 L 127.84,788.25 L 125.00,785.65 L 124.75,784.10 L 119.00,777.65 L 118.75,776.10 L 114.91,771.50 L 114.75,770.10 L 113.00,768.65 L 112.75,767.10 L 111.00,765.65 L 110.84,764.25 L 107.00,759.65 L 106.75,758.10 L 105.00,756.65 L 103.75,753.10 L 99.93,748.50 L 100.15,747.00 L 145.75,747.11 Z
    M 593.50,900.83 L 588.25,900.82 L 587.50,899.93 L 584.25,899.82 L 583.50,898.93 L 581.25,898.82 L 580.50,897.93 L 577.25,897.82 L 576.50,896.93 L 574.25,896.82 L 573.50,895.93 L 570.25,895.82 L 569.50,894.93 L 566.25,894.82 L 565.25,893.88 L 562.25,893.82 L 561.50,892.93 L 559.25,892.82 L 558.50,891.93 L 556.25,891.82 L 555.50,890.93 L 553.25,890.82 L 552.50,889.93 L 547.25,888.82 L 544.50,886.93 L 542.25,886.82 L 541.50,885.93 L 539.25,885.82 L 538.50,884.93 L 536.25,884.82 L 535.50,883.93 L 530.25,882.82 L 527.50,880.93 L 525.25,880.82 L 524.50,879.92 L 523.25,879.83 L 522.50,878.93 L 520.25,878.82 L 517.50,876.93 L 512.25,875.82 L 507.50,872.93 L 505.25,872.82 L 498.50,868.93 L 496.25,868.82 L 483.50,861.93 L 481.25,861.82 L 474.50,857.92 L 473.25,857.83 L 471.50,855.92 L 458.25,849.83 L 456.50,847.92 L 451.25,845.83 L 449.50,843.92 L 444.25,841.83 L 442.50,839.92 L 441.25,839.83 L 437.50,836.92 L 436.25,836.83 L 434.50,834.92 L 431.25,833.83 L 429.50,831.92 L 428.25,831.83 L 426.50,829.92 L 425.25,829.83 L 423.50,827.92 L 422.25,827.83 L 420.61,826.00 L 419.25,825.83 L 417.50,823.92 L 416.25,823.83 L 414.50,821.92 L 413.25,821.83 L 410.50,818.92 L 409.25,818.83 L 407.50,816.92 L 406.25,816.83 L 399.61,811.00 L 398.14,810.75 L 394.61,807.00 L 393.14,806.75 L 389.61,803.00 L 388.14,802.75 L 381.61,796.00 L 380.14,795.75 L 356.00,771.65 L 355.75,770.10 L 352.85,767.25 L 353.00,747.11 L 487.65,747.00 L 491.91,756.50 L 493.84,758.25 L 493.91,759.50 L 494.84,760.25 L 494.91,761.50 L 495.84,762.25 L 495.91,763.50 L 496.84,764.25 L 500.91,773.50 L 502.84,775.25 L 504.00,778.65 L 505.84,780.25 L 507.91,785.50 L 509.75,787.10 L 510.91,790.50 L 514.75,795.10 L 514.91,796.50 L 515.84,797.25 L 516.00,798.65 L 517.84,800.25 L 518.00,801.65 L 519.75,803.10 L 521.00,806.65 L 522.75,808.10 L 522.91,809.50 L 524.75,811.10 L 525.00,812.65 L 527.75,815.10 L 527.91,816.50 L 531.75,821.10 L 532.00,822.65 L 533.75,824.10 L 534.00,825.65 L 535.75,827.10 L 536.00,828.65 L 541.75,835.10 L 542.00,836.65 L 543.75,838.10 L 544.00,839.65 L 546.75,842.10 L 547.00,843.65 L 549.75,846.10 L 550.00,847.65 L 557.75,856.10 L 557.91,857.50 L 560.75,860.10 L 561.00,861.65 L 565.75,866.10 L 566.00,867.65 L 570.75,872.10 L 571.00,873.65 L 577.75,880.10 L 578.00,881.65 L 585.75,889.10 L 586.00,890.65 L 593.75,898.12 Z
    M 617.50,891.83 L 614.25,891.82 L 612.50,889.92 L 611.14,889.75 L 596.00,874.65 L 595.75,873.10 L 586.00,863.65 L 585.75,862.10 L 581.00,857.65 L 580.75,856.10 L 576.00,851.65 L 575.75,850.10 L 571.00,845.65 L 570.75,844.10 L 565.00,837.65 L 564.75,836.10 L 557.00,827.65 L 556.75,826.10 L 555.00,824.65 L 554.75,823.10 L 552.00,820.65 L 551.84,819.25 L 548.00,814.65 L 547.75,813.10 L 545.00,810.65 L 544.75,809.10 L 543.00,807.65 L 542.75,806.10 L 541.00,804.65 L 540.75,803.10 L 539.00,801.65 L 538.75,800.10 L 537.00,798.65 L 536.75,797.10 L 532.91,792.50 L 531.75,789.10 L 528.00,784.65 L 526.75,781.10 L 522.91,776.50 L 522.84,775.25 L 521.91,774.50 L 521.75,773.10 L 519.91,771.50 L 516.84,764.25 L 514.91,762.50 L 513.75,759.10 L 511.91,757.50 L 511.84,756.25 L 507.92,749.50 L 508.11,747.00 L 617.75,747.11 Z
    M 637.50,892.86 L 635.92,891.50 L 635.90,887.50 L 634.83,886.00 L 634.83,752.75 L 635.90,751.25 L 636.00,747.11 L 746.60,747.00 L 746.82,748.50 L 741.91,757.25 L 741.84,758.50 L 739.91,760.25 L 736.84,767.50 L 735.00,769.10 L 733.84,772.50 L 731.91,774.25 L 729.84,779.50 L 726.00,784.10 L 724.84,787.50 L 721.00,792.10 L 720.75,793.65 L 719.00,795.10 L 717.75,798.65 L 715.00,801.10 L 713.75,804.65 L 711.00,807.10 L 710.84,808.50 L 707.00,813.10 L 706.75,814.65 L 704.00,817.10 L 703.75,818.65 L 702.00,820.10 L 701.75,821.65 L 699.00,824.10 L 698.75,825.65 L 695.00,829.10 L 694.84,830.50 L 692.00,833.10 L 691.75,834.65 L 688.00,838.10 L 687.75,839.65 L 684.91,842.25 L 684.75,843.65 L 679.00,849.10 L 678.75,850.65 L 675.00,854.10 L 674.75,855.65 L 667.00,863.10 L 666.75,864.65 L 657.00,874.10 L 656.66,875.75 L 655.00,876.09 L 654.67,877.75 L 653.14,878.00 L 640.61,890.75 L 639.25,890.92 Z
    M 1109.50,808.81 L 1108.00,808.61 L 1106.84,806.00 L 1106.92,804.25 L 1107.92,803.00 L 1108.00,747.11 L 1152.60,747.00 L 1152.91,748.25 L 1151.91,749.25 L 1151.84,750.50 L 1148.00,755.10 L 1146.84,758.50 L 1143.00,763.10 L 1142.75,764.65 L 1141.00,766.10 L 1140.75,767.65 L 1139.00,769.10 L 1138.75,770.65 L 1137.00,772.10 L 1136.75,773.65 L 1134.00,776.10 L 1133.75,777.65 L 1131.91,779.25 L 1131.75,780.65 L 1126.00,787.10 L 1125.84,788.50 L 1124.00,790.10 L 1123.75,791.65 L 1120.00,795.10 L 1119.75,796.65 L 1115.00,801.10 L 1114.75,802.65 L 1112.00,805.10 L 1111.75,806.65 Z
    M 376.50,819.82 L 354.50,819.88 L 353.00,818.64 L 353.14,795.00 L 354.57,795.00 L 368.14,808.75 L 369.61,809.00 L 378.74,818.00 L 378.75,818.77 L 377.25,818.90 Z
    M 899.50,819.83 L 875.50,819.88 L 874.92,819.50 L 874.85,817.50 L 878.14,814.00 L 879.61,813.75 L 885.14,808.00 L 886.61,807.75 L 898.18,796.00 L 899.25,795.88 L 899.91,796.75 Z
    M 335.50,932.83 L 331.50,932.88 L 330.50,931.93 L 327.25,931.82 L 326.50,930.93 L 323.25,930.82 L 322.50,929.93 L 319.25,929.82 L 318.50,928.93 L 316.25,928.82 L 315.50,927.93 L 313.25,927.82 L 312.50,926.93 L 309.25,926.82 L 308.50,925.93 L 306.25,925.82 L 305.50,924.93 L 303.25,924.82 L 302.50,923.93 L 297.25,922.82 L 296.50,921.93 L 294.25,921.82 L 291.50,919.93 L 289.25,919.82 L 286.50,917.93 L 284.25,917.82 L 279.50,914.93 L 277.25,914.82 L 268.50,909.93 L 266.25,909.82 L 261.50,906.92 L 260.25,906.83 L 258.50,904.92 L 249.25,900.83 L 247.50,898.92 L 244.25,897.83 L 242.50,895.92 L 239.25,894.83 L 237.50,892.92 L 234.25,891.83 L 229.50,887.92 L 228.25,887.83 L 226.50,885.92 L 225.25,885.83 L 218.50,879.92 L 217.25,879.83 L 215.50,877.92 L 214.14,877.75 L 206.61,871.00 L 205.14,870.75 L 193.61,860.00 L 192.14,859.75 L 185.61,853.00 L 184.14,852.75 L 170.00,838.75 L 170.00,838.00 L 171.50,836.87 L 335.50,836.92 Z
    M 431.50,944.86 L 430.25,943.88 L 403.50,943.88 L 402.25,942.88 L 391.50,942.88 L 390.25,941.88 L 382.50,941.88 L 381.25,940.88 L 374.50,940.88 L 373.25,939.88 L 360.50,938.88 L 359.50,937.93 L 355.50,937.88 L 353.00,936.65 L 352.83,838.75 L 354.25,836.93 L 404.50,836.93 L 408.25,839.83 L 409.50,839.92 L 411.25,841.83 L 412.50,841.92 L 414.25,843.83 L 415.50,843.92 L 417.25,845.83 L 418.50,845.92 L 420.25,847.83 L 423.50,848.92 L 428.25,852.83 L 431.50,853.92 L 436.25,857.83 L 437.50,857.92 L 438.25,858.83 L 441.50,859.92 L 443.25,861.83 L 450.50,864.92 L 452.25,866.83 L 453.50,866.92 L 454.25,867.83 L 455.50,867.92 L 456.25,868.83 L 457.50,868.92 L 458.25,869.83 L 459.50,869.92 L 460.25,870.83 L 461.50,870.92 L 462.25,871.83 L 463.50,871.92 L 464.25,872.83 L 465.50,872.92 L 466.25,873.83 L 467.50,873.92 L 468.25,874.83 L 469.50,874.92 L 470.25,875.83 L 471.50,875.92 L 472.25,876.83 L 473.50,876.92 L 486.25,883.82 L 488.50,883.93 L 495.25,887.82 L 497.50,887.93 L 500.25,889.82 L 502.50,889.93 L 503.25,890.83 L 504.50,890.92 L 507.25,892.82 L 509.50,892.93 L 512.25,894.82 L 514.50,894.93 L 515.25,895.82 L 517.50,895.93 L 518.25,896.83 L 519.50,896.92 L 520.25,897.82 L 522.50,897.93 L 523.25,898.82 L 528.50,899.93 L 531.25,901.82 L 533.50,901.93 L 534.25,902.82 L 539.50,903.93 L 540.25,904.82 L 542.50,904.93 L 543.25,905.82 L 545.50,905.93 L 546.25,906.82 L 548.50,906.93 L 549.25,907.82 L 551.50,907.93 L 552.25,908.82 L 554.50,908.93 L 555.25,909.82 L 558.50,909.93 L 559.25,910.82 L 561.50,910.93 L 562.25,911.82 L 565.50,911.93 L 566.25,912.82 L 569.50,912.93 L 570.50,913.89 L 573.50,913.93 L 574.25,914.82 L 576.50,914.93 L 577.50,915.88 L 580.50,915.93 L 581.25,916.82 L 583.50,916.92 L 583.90,917.50 L 583.83,919.50 L 582.50,920.82 L 577.25,921.93 L 576.50,922.82 L 574.25,922.93 L 573.50,923.82 L 571.25,923.93 L 570.50,924.82 L 567.25,924.93 L 566.50,925.82 L 564.25,925.93 L 563.50,926.82 L 560.25,926.93 L 559.50,927.82 L 557.25,927.93 L 556.50,928.82 L 549.25,929.93 L 548.50,930.82 L 545.25,930.93 L 544.50,931.82 L 540.50,931.88 L 539.50,932.82 L 536.25,932.93 L 535.50,933.82 L 531.50,933.88 L 530.50,934.82 L 527.25,934.93 L 526.50,935.82 L 522.25,935.93 L 521.25,936.88 L 516.50,936.88 L 515.25,937.88 L 510.25,937.93 L 509.25,938.88 L 503.50,938.88 L 502.25,939.88 L 495.50,939.88 L 494.25,940.88 L 487.50,940.88 L 486.25,941.88 L 477.50,941.88 L 476.25,942.88 L 464.50,942.88 L 463.25,943.88 L 432.50,943.88 Z
    M 922.50,932.82 L 917.50,932.88 L 916.83,932.00 L 916.83,838.75 L 918.25,836.93 L 1082.82,837.25 L 1082.75,838.61 L 1066.61,854.75 L 1065.14,855.00 L 1058.61,861.75 L 1057.14,862.00 L 1046.61,871.75 L 1045.14,872.00 L 1042.61,874.75 L 1041.14,875.00 L 1038.61,877.75 L 1037.14,878.00 L 1030.50,883.83 L 1029.25,883.92 L 1027.50,885.83 L 1026.25,885.92 L 1024.61,887.75 L 1023.25,887.92 L 1021.50,889.83 L 1020.25,889.92 L 1018.50,891.83 L 1017.25,891.92 L 1015.50,893.83 L 1014.25,893.92 L 1010.50,896.83 L 1007.25,897.92 L 1005.50,899.83 L 998.25,902.92 L 996.50,904.83 L 995.25,904.92 L 986.50,909.82 L 984.25,909.93 L 975.50,914.82 L 973.25,914.93 L 968.50,917.82 L 966.25,917.93 L 965.50,918.83 L 964.25,918.92 L 963.50,919.82 L 961.25,919.93 L 958.50,921.82 L 956.25,921.93 L 955.50,922.82 L 953.25,922.93 L 952.50,923.82 L 950.25,923.93 L 949.50,924.82 L 947.25,924.93 L 946.50,925.82 L 944.25,925.93 L 943.50,926.82 L 941.25,926.93 L 940.50,927.82 L 938.25,927.93 L 937.50,928.82 L 934.25,928.93 L 933.50,929.82 L 930.25,929.93 L 929.50,930.82 L 927.25,930.93 L 926.50,931.82 L 923.25,931.93 Z
    M 819.50,944.86 L 818.25,943.88 L 789.50,943.88 L 788.25,942.88 L 776.50,942.88 L 775.25,941.88 L 766.50,941.88 L 765.25,940.88 L 758.50,940.88 L 757.25,939.88 L 750.50,939.88 L 749.25,938.88 L 744.50,938.88 L 743.50,937.93 L 738.50,937.88 L 737.25,936.88 L 732.50,936.88 L 731.25,935.88 L 727.50,935.88 L 726.25,934.88 L 717.25,933.82 L 716.50,932.93 L 713.25,932.82 L 712.50,931.93 L 708.25,931.82 L 707.50,930.93 L 704.25,930.82 L 703.50,929.93 L 700.25,929.82 L 699.50,928.93 L 697.25,928.82 L 696.50,927.93 L 689.25,926.82 L 688.50,925.93 L 686.25,925.82 L 685.50,924.93 L 682.25,924.82 L 681.50,923.93 L 679.25,923.82 L 678.50,922.93 L 676.25,922.82 L 675.50,921.93 L 670.25,920.82 L 668.84,918.50 L 670.25,916.93 L 672.50,916.82 L 673.25,915.93 L 676.50,915.82 L 677.25,914.93 L 679.50,914.82 L 680.25,913.93 L 683.50,913.82 L 684.25,912.93 L 686.50,912.82 L 687.25,911.93 L 690.25,911.88 L 691.25,910.93 L 693.50,910.82 L 694.25,909.93 L 697.50,909.82 L 698.25,908.93 L 700.50,908.82 L 701.25,907.93 L 703.50,907.82 L 704.25,906.93 L 706.50,906.82 L 707.25,905.93 L 709.50,905.82 L 710.25,904.93 L 712.50,904.82 L 713.25,903.93 L 715.50,903.82 L 716.25,902.93 L 718.50,902.82 L 719.25,901.93 L 721.50,901.82 L 722.25,900.93 L 724.50,900.82 L 725.25,899.93 L 727.50,899.82 L 728.25,898.93 L 730.50,898.82 L 733.25,896.93 L 735.50,896.82 L 738.25,894.93 L 743.50,893.82 L 744.25,892.92 L 745.50,892.83 L 746.25,891.93 L 748.50,891.82 L 753.25,888.93 L 755.50,888.82 L 760.25,885.93 L 762.50,885.82 L 775.25,878.93 L 777.50,878.82 L 790.25,871.92 L 791.50,871.83 L 792.25,870.92 L 793.50,870.83 L 794.25,869.92 L 795.50,869.83 L 797.25,867.92 L 804.50,864.83 L 806.25,862.92 L 809.50,861.83 L 812.25,859.92 L 813.50,859.83 L 815.25,857.92 L 816.50,857.83 L 820.25,854.92 L 823.50,853.83 L 825.14,852.00 L 826.50,851.83 L 828.25,849.92 L 829.50,849.83 L 831.25,847.92 L 834.50,846.83 L 836.25,844.92 L 837.50,844.83 L 843.14,840.00 L 844.50,839.83 L 848.25,836.93 L 899.64,837.00 L 899.85,841.25 L 900.92,842.75 L 900.83,845.50 L 899.83,846.75 L 899.75,936.64 L 898.50,937.82 L 894.50,937.88 L 893.25,938.88 L 887.50,938.88 L 886.50,939.82 L 880.50,939.88 L 879.25,940.88 L 872.50,940.88 L 871.25,941.88 L 863.50,941.88 L 862.25,942.88 L 851.50,942.88 L 850.25,943.88 L 820.50,943.88 Z
  "/>
</svg>
